<svg fill="#fff" xmlns="http://www.w3.org/2000/svg" viewBox="0 0 555.9 741.3"><g id="Layer_2" data-name="Layer 2"><g id="Layer_1-2" data-name="Layer 1"><g><path d="M255.5,502.9c2-12,7.4-22.7,13-33.2,3.2-5.9,5.1-12.1,6.8-18.9-3.3-.1-5.2,2-7.1,3.5-17.8,14-33.5,29.8-45.1,49.5-7.6,12.9-20,20.5-32.8,27.3-1.3-.3-2.4-.2-2.8,1.3-5.1,2.4-10.3,4.8-16,5.4-3.2-1.7-5.9-1.5-8.1,1.6l-1.6.4c-1.8-3.7-3.5-3.5-7.2.8h-2.1c-2.4-1.4-4.8-2.8-6.9.5-4,1.5-8,.6-12,.5-1.2-1.2-2.2-1.2-3,.4l-2.1.5c-1.2-1.2-1.6-.4-1.9.8-4.4,2.3-9.4,2.7-14.1,3.8-1.3-.4-2.4-.4-2.9,1.2L71.8,566.1c-8.9,4.2-16.8,10-24.7,15.8-1.4-.1-2.2.4-2.3,1.9A62,62,0,0,1,32,594.9c-4.2-.9-.6-3.8-1.3-5.6,3.5-7.5,9.8-12.9,14.6-19.5,1.8-.7,1.9-1.7.6-3a3.3,3.3,0,0,1,.5-3c1.7-.5,1.3-1.9,1.3-3.1,2.4-3.9,6.5-5.7,10.1-7.9,17.3-10.3,35.1-19.5,54.5-25.3,14.5-4.3,29.5-4.5,44.3-6.6,10.9-1.5,22.3-1.3,32.5-6.5,14.6-7.4,25.5-18.9,35-32,3.9-5.4,7.1-11.2,11-16.6,7.5-10.3,17.9-17.2,28.9-23.2.4-.3.9-.4,1.4-.7s3.3-1.2,2.7-3-2.8-1.2-4.3-.8c-5.3,1.4-10.7,2.7-15.5,5.4a103.4,103.4,0,0,0-12.8,7.7c-10.3,7.3-20.8,14.4-30.5,22.5-22.2,18.3-46.3,19.6-72.2,9.9-15.7-6-25.7-17-30.3-33.2-2.1-7.5-5.2-14.8-8.1-22.1-6.7-17.4-2.6-32.6,12.2-43.7,22.2-16.8,46.6-21.3,73-12.3,10.4,3.5,21.3,5.1,31.9,8,14,3.8,25.8,11.3,36.9,20.1a92.2,92.2,0,0,0,16.7,10.9c1.1.6,2.3,1.7,3.6.4s0-2.2-.4-3.2c-9.6-20.6-14.6-42.8-23.7-63.5-6.5-14.8-18.3-24.7-31-34.4s-26.9-7.5-40.9-3.1a58.2,58.2,0,0,0-7.9,3c-8.7,4.1-18.8,2.4-27.6,6.3-1.4.7-3.5.6-4.1-1.4s.8-2.7,2.2-3.5c9.2-5.3,18.4-10.7,28.2-14.8,4-1.7,8.2-1.7,12.3-2.3,1.6-.2,4.4-.3,4.1-2.5s-2.8-1-4.2-.9c-6.1.7-12.2-.1-18.3,0-13.1.4-21.8,7.4-29.8,16-10.3,10.9-21.2,20.3-36.8,22-2.2.3-4.7,1.4-5.6-1.4s1.7-3.4,3.4-4.2c13.9-6.4,25.7-15.7,36.9-26.1,2.1-1.9,2.2-1.8,3.7-5.7-6.3,1.3-11.2,4.9-16.7,7.1-14.2,5.7-25.2,16.6-38.4,23.9-7.4,4.1-14.8,6.6-23.3,6.1-6.3-.4-12.6,0-18.9-.1-1.9,0-4.5.3-5-2.2s1.9-3.4,3.7-4.1,6.3-2.2,9.5-3.1C57,314.4,72.7,306.2,88.2,298a121.4,121.4,0,0,1,48.5-14.2c5.6-.5,11.1-1.2,16.7-.1,1.2.2,3,.5,3.3-1.3s-1.5-1.6-2.5-2l-24-8.4c-1.5-.5-3.8-.6-3.7-2.6s2.5-2,4-2.4c11.2-2.8,21.8-.5,31.8,4.6s16.7,10.8,25,16.4,20.5,12.2,30.1,19.4,16.3,11.5,21.9,20.1a3.7,3.7,0,0,0,1.6,1.9c1.1-3.8.1-7.1-.9-10.2-5.9-19.1-16.1-35.7-27.8-51.6-4.8-6.6-9.7-13.1-14.6-19.6s-10.7-8-18-5a28.4,28.4,0,0,1-14.1,2.3c-6.6-.6-12.3,2.4-18.3,4.4-16.7,5.3-33.3,6-49.9.4-5.4-1.9-10.5-.6-15.7.5-1.6.4-3.4,1.3-4.7-.2s-.3-3.5.4-5.1c2.2-5.2,5.8-8.2,11.7-8.6s6-2.6,3.2-6.5-1-4.2,1.9-5.3c9.7-3.7,19.6-4.8,29.8-2.4a4.1,4.1,0,0,0,1.9.1c9.4-3.7,17.4,0,25.5,4.4a97,97,0,0,0,13.7,5.8c2,.7,4.8,1.3,5.8-1.1s-1.8-3.2-3.3-4.1a117.7,117.7,0,0,0-50.3-17.7c-4.5-.5-9.3-.9-12.5-5.2-6.8-8.9-7.2-11.8-.4-20.7,3.8-5,5-9.7,3.9-16.1-1.4-8.2-.5-16.5,5.5-23.5,3.1-3.6,6.7-4.8,11.1-3.6s10.3,3.6,14.5,7.4c1.4,1.2,2.6,3,5.1,3.5,0-4.1-2.1-6.9-3.2-10.2s-4.2-8.4.6-12.2,10.9-4.6,16.7.2,5.4,4.5,9.6-1.4,10-7.3,15.7-.4,8.3,17.3,4.3,27.4c-2.6,7-2.3,14.5-1.5,21.8,1.2,11.9,3,23.7,4.6,35.6.1,1.1-.3,2.7,1.2,2.9s1.9-1.5,2.3-2.7a62.2,62.2,0,0,0,2.3-33.9c-2.8-14.3-3.7-28.6-1.5-43.1.2-1.6,0-3.6,1.8-4.3s3.4.9,4.4,2.4a115.1,115.1,0,0,1,7.5,11.2c1.5,2.9,2.7,3.1,5.3,1.3,4.6-3.4,8-2,9.2,3.7a22.8,22.8,0,0,1,.3,6.4c-.9,11.2-2.7,22.4-2.8,33.7-.1,15.2-8.2,27.1-17.6,38.2-5.4,6.4-5.9,8.3-1,15.2,10,14,21.2,27,30.6,41.3a121.7,121.7,0,0,1,17.3,42.7c5,24.1,9.8,48.3,20.3,70.8a36.8,36.8,0,0,0,2.1,4.5c.8,1.3,1.1,3.7,3.2,3.1s.9-2.6.8-4c-.4-14.1-.3-28.3.5-42.4,1.2-21.8-4.1-42.2-13.5-61.7-6.4-13.3-13.7-26.3-17.2-40.8-1.1-4.5-1.8-9.1-2.6-13.7-1.6-9-2.6-18.1-5.1-27a26.2,26.2,0,0,1-1-8.4c0-1,.1-2.1,1.4-2.3a2.5,2.5,0,0,1,2.3,1.6,3.6,3.6,0,0,1,.4.9c4.4,14.9,12.7,28.2,19.1,42.2,4.1,9.1,8,18.3,8.6,28.5.1,1.3.1,3,2.3,4.3.7-3.8.4-7.3.4-10.8.7-25.7-4.9-50.4-11.8-75-3.6-13.2-5.7-26.7-3.6-40.5.3-1.6-.2-3.8,1.9-4.2s3.4,1.4,4,3.1,1.3,4.8,1.9,7.2c5.1,21.1,10.3,42.1,12.2,63.7s4.2,41,.9,61.7c-1.5,9.7-.4,19.6.4,29.3a5,5,0,0,0,1.5,3.4c2.3-2.7,2.6-6.1,2.9-9.2,1.5-17.9,4.9-35.6,5.9-53.6s-1.2-35.9-3.7-53.7c-4-29.9-4.5-59.6,3-89.1,1-3.8,0-5-3.9-3.7a21.7,21.7,0,0,1-9.8,1.1c-14.4-1.2-28.4-3.9-41.5-10-10-4.7-15.8-13.5-20.2-23.2-1.7-3.8,1.2-5.4,4-6,5.2-1,5.6-3.6,3.5-7.8a56.6,56.6,0,0,1-4.9-16.1,20.3,20.3,0,0,1-.1-6.5c.7-3.8,2.2-7.3,6-8.5s5.8,2.1,7.8,4.4,4.6,4.4,8.9,4.6c6.1.3,12.1,2.6,15.3,8.9s5.6,10.5,8.2,15.9a61,61,0,0,0,10.2,15.3c1.5,1.5,2.8,3.3,5.1,3.6a1.2,1.2,0,0,0,.3-1.8c-9-17.6-12-36.6-13.5-55.9-.5-5.8.2-11.6.9-17.4s5.1-9.3,11.6-8.4c2.4.3,4.6.1,6.5-1.7A7.5,7.5,0,0,1,288.3.1c17.7,2.5,31.8,11.8,29,33.4-1.2,9.7-5.9,18.3-9.3,27.3-1.6,4.1-3,8.1-4.3,12.3-.3,1.1-1.1,2.7.4,3.5s2.2-.3,3.1-1.1c8-8.1,16.6-15.8,22.4-25.9,2.6-4.5,4.9-9.1,8.4-13s7.3-6,13.5-3c4.6,2.1,8.7,3.6,13.7,1.2,1.6-.8,3.9-.5,5.9-.3,4.9.7,6.9,3.8,5.5,8.6a18,18,0,0,1-4.2,7.8c-2.1,2.2-2.2,3.8,1,5.2,6.1,2.6,6.7,4.9,2.5,10s-8.3,7.1-13.3,9.4c-1.5.8-3.1,1.2-3.9,2.9-3.8,7.8-10.1,12.9-17.5,17-1.4.8-3.1,1.3-3.6,3.9,7.8-2.3,14.9-5.2,21-10.5,9.1-8.1,24.6-8.6,34.2-1.5,4.1,3.1,4.4,5.4,0,8-13.2,7.6-26,16.2-40.4,21.6-9.7,3.7-19.3,2.4-28.8-.7s-16.1-5.3-24.1-8.1c-3.4-1.1-4.8-.4-5.8,3.4-8.7,32.1-6.8,64.2-1.6,96.6,2.9,18.3,4,37,4.5,55.6.2,9.9-1.8,19.5-4.2,29.1a250.1,250.1,0,0,0-6.1,33.3c-2.7,24-3.3,48.2-3.7,72.3a46,46,0,0,0,.5,6.4,3.7,3.7,0,0,0,3.3,3.3c2.2.2,2.1-1.9,2.3-3.2,2.1-13.8,4.2-27.6,7.6-41.2,5.5-21.9,7-44.8,16.8-65.6,8.7-18.6,16.7-37.7,27.5-55.3,5.2-8.6,5.3-8.1-1.4-15.7-11.2-12.5-17.1-27.5-19.3-44.1-.6-4.7,2-7.9,5.2-10.7s4.4-1.1,6.2.6c3.6,3.2,7,4.2,10.4-.3s4.9-2.2,7.6.1,4.3,7,5,11.1c.2,1.3.1,2.7.3,4s.2,3,1.8,3.2,1.8-1.7,2.1-2.9c1.8-6.7,5.8-10.7,13-11,4.3-.2,7.8,1.2,9.7,5.5a21.5,21.5,0,0,0,1.4,2.6c6.5,10.9,6.2,16.2-2,26.1a155.4,155.4,0,0,1-17.4,17c5.7-1,10.5-4.1,15.6-6.4,2.2-1,4.4-2.3,6.7-3.1,6.3-2.4,7.3-1.8,8,5.2.4,4.2-.8,8.5,1.5,12.7,1.1,1.9-.4,3.8-2.3,4.9s-5.5,2.5-8.6,1.9c-10.4-1.9-21.3-1-31.5-4.7-3.2-1.2-4.2,1-5.6,3.3-11.3,18.7-17.5,39.4-24.5,59.9s-15.6,41.4-20.5,63c-1.5,7-2.6,14-4,21.5,3.5-.8,4.4-3.3,5.5-5.4,9.3-17.5,20-34.1,30-51.2,6.4-11,16-19,25.9-26.6,18.1-13.9,38.1-24.9,57.1-37.5,8.5-5.7,9.2-5.7,3.9-14.6-10.5-17.3-8.3-35.1-2.7-53,4.1-13.1,6.8-26.4,7-40.2.1-1.7-.4-4.1,1.8-4.7s4,1.6,4.7,3.5c2.5,6.1,6.6,8.8,13.4,8.8s10.6,3.5,13.3,9.1A37.5,37.5,0,0,1,462,191c.1,1.3-.8,3,.8,3.6s2.3-1,3.4-1.7c5.1-3.5,10.2-6.9,16.6-7.5a30.1,30.1,0,0,1,6,.1c7.5,1.1,9.4,3.7,8.2,11.2a34.2,34.2,0,0,1-4.6,13.1c-.7,1-2.2,2.1-1,3.4s2.6.5,3.8.1a21.7,21.7,0,0,1,9.8-1c3.7.6,5.5,2.5,5.3,6.4s-.1,9-.3,13.5-.2,6.1-2.5,8.4-1.8,5.8,1.2,7.3c5.7,2.9,8.3,7.8,10.3,13.4s4.8,12.4,7,18.7,2,13.7,0,20.6c-.5,1.7-1.1,3.6-3.3,3.9a4,4,0,0,1-4.5-2.5c-4.2-10.2-11.7-9.8-20.7-7.7s-16.7,1-24.8-2.7c-9.8-4.4-19.7-8.8-29.5-13.4-.9-.4-2.3-1-2.8-.6-8.1,5.9-11.3-2.6-15.9-5.8-2.4-1.8-3.8-2.7-6.3-1.1-21,13.3-42.8,25.6-60.6,43.5A206.2,206.2,0,0,0,332,346.6a16.6,16.6,0,0,0-2.9,8.6c6.4-4.5,12.4-8.2,17.9-12.6,9.8-7.8,20.2-14.7,29.3-23.3,5.8-5.4,11.1-11.4,17.5-16.1a103.8,103.8,0,0,1,24-13.1c1.8-.7,4.2-2.1,5.2.2s-1.4,3.1-3,4a30.8,30.8,0,0,0-10.8,10.1,36.3,36.3,0,0,1-13.7,12.4c8.4-.3,16.3-3.3,24.6-3.4.6.8,1.9,1,1.9,2.3-23.5,5.7-46.5,12.5-66.9,26.1-10.1,6.7-19.3,14.7-29.5,21.3a11.7,11.7,0,0,0-3.4,3.6c-8.5,14.1-16.6,28.4-22.3,44.7,4.4-.6,7.7-2.8,10.8-4.8a178.8,178.8,0,0,0,17.8-12c10.7-8.6,23.2-12.8,36.1-16.3l24.6-6.1c.9,1.2,1.5.7,1.9-.5a1.9,1.9,0,0,1,2-.5c1.1,1.2,1.6.7,2-.5l2-.5c1,1.2,1.6.7,2-.5l3-.5c1.2,1.2,2.2,1.2,3-.3a53.3,53.3,0,0,1,19.9.1c.6,1,1.3,1.1,2,.1,19.9,4.3,36.7,13.3,47.8,30.9,1.1,1.8,2.2,3.8,2.1,6s-.9,1.6.4,2c1,5.8,1.6,11.6-1.5,17-2.7,1.2-2.6,3.5-2.4,5.9-1.6,3.3-3.2,6.7-4.9,10.1-1.5.4-1.5,1.5-1.1,2.8a24.4,24.4,0,0,1-2.9,8.2c-1.5.4-1.5,1.5-1,2.8-5.4,15.8-16.6,25.2-32.3,29.7-.3-2.7-1.8-2.2-3.8-1.9-10.7,1.5-21.2,4.7-32.1,3.3l-15.1-2c-7.9-2.5-14.2-7.4-20-12.9a1.9,1.9,0,0,0-2.2-2,14.9,14.9,0,0,1-4.8-4.2,1.8,1.8,0,0,0-2.4-1.7,106.8,106.8,0,0,1-17.5-11.3c-7.5-6-15.4-11.1-25-12.9-1.5-.3-3.6-1.3-4.2,1s1.1,2.7,2.5,3.3c15.7,7.2,25.3,20.5,34.7,34.2s21.6,29.1,38.7,37.1c5.8,2.8,11.9,4.1,18.1,5.2.5,1.2,1.2,1.4,2,.2a6.9,6.9,0,0,1,4,.6c.4,1.3,1,1.6,2,.4l4,.4c1.7,2.6,3.8,1.8,5.9.6a12.1,12.1,0,0,1,6,.5c1.5,2.4,3.2,1.7,5,.5,26.7.8,50.6,10.2,72.9,24.1.3,1.6,1.4,1.8,2.7,1.6a8,8,0,0,1,4.3,2.4c.2,1.6,1.3,1.8,2.6,1.6,5,3,10.8,5,12.9,11.3-.5,1.2-.6,2.3.9,2.9,1.7,5.8,5.8,10.3,8.7,15.4-.2,1.4.1,2.4,1.6,2.6h.4v.4c-.2,1.3.2,2.3,1.7,2.5h.3v.4c-.3,1.8.4,4.2-2.5,4.6-6.6-4.7-11.7-11.1-18.2-16-3.7-2.7-7.7-5.1-11.4-7.7-.3-3.1-2.6-2.3-4.4-2.3-5.9-1.6-11.4-4.5-16.9-7.1-13-6.1-26.1-11.5-39.6-16.3-.5-1.9-1.5-2.1-2.9-.8a4.2,4.2,0,0,1-3.1-.3c-1.7-2.7-3.8-1.7-5.9-.7H429c0-2.1-.5-4-3-3.5-6.5,1.4-12.8.2-19.2-1.1-1.8-.4-4-.8-5.7.7a3.2,3.2,0,0,1-3-.3c-1.5-2.2-3.6-2.4-6-1.5-17.4-4.7-32.9-12.4-43.7-27.6-3.7-5.1-7.3-10.4-10.6-15.7a103.2,103.2,0,0,0-26.4-28.3c-2.9-2.2-4.6-5.7-8.2-7.1-1.1-.4-2.4-.8-3.3.2s0,1.6.3,2.3c6.9,18.5,12,37.7,19.3,56.1a376.7,376.7,0,0,0,29.1,57.8c12.8,21.2,21.4,44.3,28.8,67.9a162.2,162.2,0,0,0,11.4,28.1c1.8,3.4,2.7,6.6,0,10.2-1.2,1.6-1.1,4.1-1.6,6.2s-.4,3.3-2.3,3.5-3.1-1.1-3.7-2.8c-2.3-6.2-4.9-12.4-6.6-18.8-11.9-42.9-31.4-82.6-51.1-122.2-13.9-27.8-24.7-56.7-31.3-87.1a24,24,0,0,0-1.1-3.1c-2.7,2.5-1.7,5.1-1.2,7.5,2.6,13.7,5.6,27.4,8,41.1,3,16.6,5.5,33.2,8.2,49.8,1.6,9.6,3.2,19.3,4.7,29,3.6,24.2,2.3,48.5,0,72.7-.7,8.1-3.6,15.9-6.5,23.5-.6,1.6-1.2,3.9-3.7,3.2s-1.9-2.9-1.9-4.7c.4-14.1,1.4-28.2,2.8-42.3a228,228,0,0,0-5.9-76.7c-6-24.2-8-49.2-11.5-73.9-.2-1.6,0-3.4-1.3-4.9-2.3,1.6-1.7,4.2-1.9,6.3-2.4,25.9-2.3,51.9-2.9,77.8-.4,15.1-3.4,29.6-7.2,44.2-5.4,21.1-5.5,42.7-2.1,64.3,2.3,14.8,4.9,29.5,6.3,44.4,1,9.5-2.9,16.4-8.9,22.8-1,1.1-2.3,2.2-3.9,1.5s-1.2-2.2-1.3-3.5c-.1-4.7-.1-9.3-.2-14,0-24-2.4-47.8-4.9-71.6-2.2-20.1-2.1-39.9,5.6-59,3.7-9.2,5.1-18.9,5.9-28.8,1.1-14.9,2.7-29.8,2.7-44.8,0-9.6,1.5-19.1,3.3-28.5a4.7,4.7,0,0,0-.6-3.1c-7,16.8-14.2,33.4-23.6,49-1.6.4-1.7,1.5-1.3,2.8a23.9,23.9,0,0,1-3.9,8.2c-2.2.9-2.5,2.7-2.2,4.8-4.1,10.1-9.8,19.4-14.7,29.2-1.6.4-1.6,1.5-1.2,2.8a14.7,14.7,0,0,1-2,6.1c-1.6,1.8-3.1,3.5-1.5,6l-.5,2c-1.2.4-1.7,1-.5,2a3.6,3.6,0,0,1-.6,3c-1.2.5-1.6,1.1-.4,2a3.6,3.6,0,0,1-.6,3c-1.2.5-1.5,1.1-.3,2a3.6,3.6,0,0,1-.7,3c-1.2.5-1.6,1.1-.4,2l-.3,2c-1.9.7-2,1.7-.6,3a3.9,3.9,0,0,1-.4,3c-2.2,1-1.9,2.4-.7,4a3.3,3.3,0,0,1-.5,3c-1.7.7-1.7,1.8-.4,3a51.6,51.6,0,0,1-1.8,11c-1.1.5-1.4,1.1-.2,2a6.2,6.2,0,0,1-.6,4c-1.2.4-1.7,1-.5,1.9a4.2,4.2,0,0,1-.5,3.1c-1.2.4-1.7,1-.4,1.9a3.9,3.9,0,0,1-.5,3c-1.8.8-1.8,1.8-.6,3a3.6,3.6,0,0,1-.6,3c-1.2.5-1.5,1.2-.3,2s-.7,4.1-1.5,6-1.8.9-.6,2a7.2,7.2,0,0,1-2,5c-2.4.6-2.7,2.5-2.7,4.5s-3.3,3.1-5.3,2.1-1.9-4.2-1-6.6c1.2-.5,1.4-1.1.3-1.9a5.1,5.1,0,0,1,.7-4c1.5-.8,1.5-1.9.3-3a3.6,3.6,0,0,1,.6-3c1.6-.7,1.6-1.8.5-3a3.2,3.2,0,0,1,.5-3c1.6-.8,1.6-1.8.4-3a4,4,0,0,1,.5-3c1.7-.7,1.8-1.8.5-3a7.9,7.9,0,0,1,.7-5c1.1-.5,1.5-1.1.3-2a6.3,6.3,0,0,1,.7-4c1.2-.5,1.4-1.1.3-2a3.3,3.3,0,0,1,.7-3c1.1-.5,1.5-1.1.3-2a4.1,4.1,0,0,1,.5-3c1.7-.7,1.7-1.7.5-2.9s.3-1.4.5-2.1c1.7-.6,1.7-1.6.6-2.9.6-5.8,2.3-11.4,3.6-17,1.3-1.5,2.5-2.9,1.2-5a19.4,19.4,0,0,0,.5-2c1.3-.4,1.8-1,.6-2,2.7-12.8,8.1-24.5,14.1-36,1.6-.4,1.8-1.5,1.3-2.8,4.5-11.3,10.4-21.8,16.7-32.1,1.6-.4,1.7-1.5,1.4-2.8l8.7-18.2A3.5,3.5,0,0,0,255.5,502.9ZM371.1,392.1c-7.1,3.5-15.2,4.5-22.4,8-13.4,6.5-26.5,13.8-40.9,18.2a4.5,4.5,0,0,0-3.1,3.5c-1.2,5.1-.5,6.3,6.2,7.3a94.5,94.5,0,0,1,41,16.9c12.5,8.9,24.7,18,39.2,23.5,2,2.1,4.2,3.3,7,1.4a4.4,4.4,0,0,1,3,.2c1.2,3.2,4,1.8,6,1.7,5.4-.1,11.1,1.3,16-2.4,7.9-2.1,16-3.8,21.9-10.5,4.3-4.7,6.9-10.4,9.8-15.9s2.9-11.6,5.8-16.6,2.2-12.4.1-18.3-6.2-13.5-13.3-17.1c-14.6-7.3-30.9-6.8-46.5-9.3-2.6-.4-5.5,1.7-8.4,2.2C385,386.2,378.1,389.2,371.1,392.1Zm-211.3,79a46.2,46.2,0,0,0,17.7-2.6c13.8-4.7,26.2-12.1,37.6-21.2,13.1-10.6,28.4-15.4,44.6-18.5,1.9-.3,4.6.8,5.4-1.3s-.8-4.8-2.2-6.9-3.2-2.7-5.2-3.6c-6.1-2.6-12.3-5.1-18.3-8-18.4-9.1-37.7-15.6-57.4-21.1s-36.8-2.3-54.3,3.4c-12.6,4.2-22.7,16.7-18.6,32.8,2,7.9,4.5,15.6,7.1,23.4,1.8,5.6,5.5,10.1,9.9,14.1C135.8,470.2,147.8,470.6,159.8,471.1Z"></path><path d="M41.7,260.9c-2.3-3-4-5-5.4-7.1-4-6-7.5-12.1-6-19.9.7-3.5-.9-6.9-2-10.2-2.6-7.8,4.1-18.2,12.3-19,3.3-.4,6.1,2.3,5,5.6-1.8,5.7.6,10,3.5,14.3a127.1,127.1,0,0,1,9,16.1c5.4,10.6,1.7,19.1-4.8,27.5S38,280.4,29.2,284.6c-4.5,2.1-9.1,3.9-13.6,6.1s-9.2,1.6-12.9-2.9-3.6-7.8-.2-12.7,7-7.4,11.8-9.7c1.1-.6,2.8-.9,2.7-2.5s-1.6-2-2.8-2.6a44.4,44.4,0,0,1-5.7-3c-6-4-6.8-6.6-4.7-13.5.7-2.3,1-4.6,1.6-6.8,1.6-5.7,3.9-6.3,8.5-2.9,6.3,4.6,10.3,10.9,13.7,17.5S34.3,260.4,41.7,260.9Z"></path><path d="M439.2,108.8c3.9-.2,6.3-2.1,8.7-3.7,5.2-3.5,11.2-5,17.1-6.6,3.6-.9,5.7,1.3,7,4.2s3.9,8,8,10.5c2,1.1,1.8,3.1.7,4.8s-3.1,4.3-4.7,6.5c-4.5,6-9.8,8.8-17.6,5.8-4.9-2-10.2-2.6-15.3-4.4-7.4-2.7-12.8-8.1-18.9-12.6-3.2-2.3-4-6-5.2-9.5-3.4-10.6-6.7-21.2-10.1-31.8-.5-1.4-1.3-2.9.2-4.1s2.8-.4,4.3.1c5.3,2,9.1,5.7,12,11.4l13.5-23c1-1.7,1.5-4.5,4.2-4.3s3.7,2.4,4.4,4.4c2.5,7.7,5.7,15.3,7,23.2s-4.3,16.3-10.3,22.8C442.5,104.3,440.3,105.6,439.2,108.8Z"></path><path d="M155,97.4c-5.3.3-10.1-1.9-15-3.2a25.1,25.1,0,0,0-16,.5c-5.7,2.1-7,.8-6.2-5,.6-4.2,1.1-8.3,1.6-12.4.7-5.9,2.2-7.3,8.1-8,1.3-.1,3,0,3.9-.7,4.4-3.9,8.3-1.7,12.2.8a35.3,35.3,0,0,0,11.8,5,21.1,21.1,0,0,1,8.7,4.7c.9.7,1.9,1.8,3,.8a2.6,2.6,0,0,0,.2-3.3c-1.7-2.5-3.2-5.2-5.2-7.3-8.3-8.5-7.5-19.5-8.1-30-.2-3.6,2.4-6.5,5.6-8.3,11.2-6.2,13.6-5.2,17.5,6.7a112.3,112.3,0,0,0,5,12.5c3.8,8.2,4.5,16-.6,24.2s-8.5,15-16.2,19.8C162,96.2,158.8,97.5,155,97.4Z"></path><path d="M474.9,317.2a19.7,19.7,0,0,1,8,.8c.5,1.1,1.1,1.4,2,.3a6.2,6.2,0,0,1,4,.5c1.5,2.2,3.2,1.6,5,.5s4-.5,6,.5c.3,1.1.9,1.7,1.9.5,17.8,6.6,35.6,13,50.5,25.1,1.7,1.3,4,2.5,3.5,5s-3.4,2.9-5.5,3.6-3,.3-4.4.6-3-.9-3.5.9,1.4,2.2,2.3,2.9c9.4,7.3,10.4,17.7,10.5,28.3.1,1.3,0,3-1.6,3.3s-3.1-1.2-4.1-2.5a231.5,231.5,0,0,0-17.6-19.4c-.4-2.5-1.7-3.9-4.3-3.9a64.7,64.7,0,0,1-12.9-12.7c.1-2.6-1.3-3.9-3.7-4.4a3.5,3.5,0,0,1-2.2-2.7c.1-1.3-.3-2.1-1.6-2.3l-.4-.2v-.4c.1-1.3-.2-2.2-1.6-2.4-2.8-3-5.5-6.1-8.2-9.1a1.8,1.8,0,0,0-2.4-1.7l-3.7-2.4c-.6-2.3-2.5-2.6-4.5-2.6l-11.4-3A2.9,2.9,0,0,1,474.9,317.2Z"></path><path d="M474.9,317.2a2.9,2.9,0,0,0,.1,3.1l-13.5-.8c-.5-.3-1.1-.6-1.5.1s.3.6.5,1c3.1,5,8.1,8.2,12.2,12.3A71,71,0,0,1,479,340c1,1.3,2.3,3,.7,4.4s-3.6.4-4.5-.8c-5-6.2-12.7-7.7-19.5-10.3-8.4-3.2-16.7-6.3-23.4-12.6-2.8-2.6-6.6-3.9-10.3-5,0-1.3-1.3-1.5-1.9-2.3a65.9,65.9,0,0,1,26.9.2C456.2,315.6,465.6,316.1,474.9,317.2Z"></path><path d="M70.8,159.1c0,3.4-6.9,11.2-10.5,11.7s-11.8-4.5-12.8-8a5.4,5.4,0,0,1,1.4-5.5c3.9-4.4,15.2-5.5,19.8-1.9A4.6,4.6,0,0,1,70.8,159.1Z"></path><path d="M520.7,151.5c.1,3.5-.6,6.7-4.3,8.2s-5.8-1-8-3.4a4.6,4.6,0,0,1-.7-.7c-2.8-3.3-4.8-6.9-2.4-11.2s4.7-3.3,7.8-2.6C518,143.1,520.7,146.5,520.7,151.5Z"></path><path d="M380.2,483.9l15.1,2c10.9,1.4,21.4-1.8,32.1-3.3,2-.3,3.5-.8,3.8,1.9-15.2,5.8-30.6,6-46.1,1.6C383.3,485.6,381.5,485.2,380.2,483.9Z"></path><path d="M401.1,537.7c1.7-1.5,3.9-1.1,5.7-.7,6.4,1.3,12.7,2.5,19.2,1.1,2.5-.5,3,1.4,3,3.5C419.5,542.3,410.3,540.1,401.1,537.7Z"></path><path d="M533.5,592.9c2.9-.4,2.2-2.8,2.5-4.6a8.6,8.6,0,0,1,1.4,1.3c1,1.7,2.7,3.8.8,5.3S534.8,594.4,533.5,592.9Z"></path><path d="M154.6,540.6c3.7-4.3,5.4-4.5,7.2-.8C159.5,541,157,540.8,154.6,540.6Z"></path><path d="M145.6,541.2c2.1-3.3,4.5-1.9,6.9-.5A13.6,13.6,0,0,1,145.6,541.2Z"></path><path d="M163.4,539.4c2.2-3.1,4.9-3.3,8.1-1.6Z"></path><path d="M30.7,589.3c.7,1.8-2.9,4.7,1.3,5.6a2.3,2.3,0,0,1-2.8,1.2c-1.5-.6-.9-2-.6-3S29.2,590.1,30.7,589.3Z"></path><path d="M431.1,541.7c2.1-1,4.2-2,5.9.7A10,10,0,0,1,431.1,541.7Z"></path><path d="M416,521.9c-2.1,1.2-4.2,2-5.9-.6A14.7,14.7,0,0,1,416,521.9Z"></path><path d="M392.1,535.9c2.4-.9,4.5-.7,6,1.5A11.6,11.6,0,0,1,392.1,535.9Z"></path><path d="M222.3,596.7c-1.6-2.5-.1-4.2,1.5-6C223.5,592.8,223.5,594.9,222.3,596.7Z"></path><path d="M427,522.9c-1.8,1.2-3.5,1.9-5-.5A9.5,9.5,0,0,1,427,522.9Z"></path><path d="M527.6,364.2c2.6,0,3.9,1.4,4.3,3.9A10.2,10.2,0,0,1,527.6,364.2Z"></path><path d="M493.9,319.3c-1.8,1.1-3.5,1.7-5-.5A8.6,8.6,0,0,1,493.9,319.3Z"></path><path d="M511,347.1c2.4.5,3.8,1.8,3.7,4.4A9.9,9.9,0,0,1,511,347.1Z"></path><path d="M473.4,430.9c-.2-2.4-.3-4.7,2.4-5.9A13.2,13.2,0,0,1,473.4,430.9Z"></path><path d="M255.5,502.9a3.5,3.5,0,0,1-1.7,5A11,11,0,0,1,255.5,502.9Z"></path><path d="M210.5,603.8c1.3,2.1.1,3.5-1.2,5A7.2,7.2,0,0,1,210.5,603.8Z"></path><path d="M202.6,686.1c0-2,.3-3.9,2.7-4.5C204.8,683.3,204.2,685,202.6,686.1Z"></path><path d="M216.3,627.7c-1.2-1.6-1.5-3,.7-4A7.9,7.9,0,0,1,216.3,627.7Z"></path><path d="M486.4,323.3c2,0,3.9.3,4.5,2.6A10.3,10.3,0,0,1,486.4,323.3Z"></path><path d="M241.7,552.6c-.3-2.1,0-3.9,2.2-4.8A9.6,9.6,0,0,1,241.7,552.6Z"></path><path d="M499.5,566.9c1.8,0,4.1-.8,4.4,2.3A7.6,7.6,0,0,1,499.5,566.9Z"></path><path d="M197.6,672.7c1.2,1.1,1.2,2.2-.3,3A3.5,3.5,0,0,1,197.6,672.7Z"></path><path d="M198.7,666.7c1.1,1.2,1.1,2.3-.5,3A3.2,3.2,0,0,1,198.7,666.7Z"></path><path d="M210.3,663.6c-1.2-1.2-1.2-2.2.6-3A3.6,3.6,0,0,1,210.3,663.6Z"></path><path d="M199.6,660.7c1.2,1.2,1.2,2.2-.4,3A3.5,3.5,0,0,1,199.6,660.7Z"></path><path d="M200.6,654.7c1.3,1.2,1.2,2.3-.5,3A3.2,3.2,0,0,1,200.6,654.7Z"></path><path d="M215.4,633.7c-1.3-1.2-1.3-2.3.4-3A3.5,3.5,0,0,1,215.4,633.7Z"></path><path d="M204.6,630.8c1.2,1.2,1.2,2.2-.5,2.9A3.3,3.3,0,0,1,204.6,630.8Z"></path><path d="M205.7,625.8c1.1,1.3,1.1,2.3-.6,2.9A3.3,3.3,0,0,1,205.7,625.8Z"></path><path d="M217.4,620.7c-1.4-1.3-1.3-2.3.6-3A3.9,3.9,0,0,1,217.4,620.7Z"></path><path d="M405.1,368.9c-.8,1.5-1.8,1.5-3,.3A3,3,0,0,1,405.1,368.9Z"></path><path d="M45.9,566.8c1.3,1.3,1.2,2.3-.6,3Z"></path><path d="M130.6,542.1c.8-1.6,1.8-1.6,3-.4A3.6,3.6,0,0,1,130.6,542.1Z"></path><path d="M440.1,542.7c1.4-1.3,2.4-1.1,2.9.8A4.1,4.1,0,0,1,440.1,542.7Z"></path><path d="M47.7,560.7c0,1.2.4,2.6-1.3,3.1A3.1,3.1,0,0,1,47.7,560.7Z"></path><path d="M126.6,543.4c.3-1.2.7-2,1.9-.8A2,2,0,0,1,126.6,543.4Z"></path><path d="M494.6,328.3A1.8,1.8,0,0,1,497,330,3.3,3.3,0,0,1,494.6,328.3Z"></path><path d="M109.6,548.4c.5-1.6,1.6-1.6,2.9-1.2A3.5,3.5,0,0,1,109.6,548.4Z"></path><path d="M502.6,548.6c-1.3.2-2.4,0-2.7-1.6A3.2,3.2,0,0,1,502.6,548.6Z"></path><path d="M505.2,339.1c1.4.2,1.7,1.1,1.6,2.4A2.6,2.6,0,0,1,505.2,339.1Z"></path><path d="M509.5,552.6c-1.3.2-2.4,0-2.6-1.6A3.5,3.5,0,0,1,509.5,552.6Z"></path><path d="M507.2,342.1c1.3.2,1.7,1,1.6,2.3A2.6,2.6,0,0,1,507.2,342.1Z"></path><path d="M227,561c.5,1.3.3,2.4-1.3,2.8A3.4,3.4,0,0,1,227,561Z"></path><path d="M523.3,566.8c-1.5-.6-1.4-1.7-.9-2.9A3.4,3.4,0,0,1,523.3,566.8Z"></path><path d="M358,469a1.9,1.9,0,0,1,2.2,2A2.8,2.8,0,0,1,358,469Z"></path><path d="M427,369.1c-.7,1-1.4.9-2-.1A1.8,1.8,0,0,1,427,369.1Z"></path><path d="M44.8,583.8c.1-1.5.9-2,2.3-1.9A3.4,3.4,0,0,1,44.8,583.8Z"></path><path d="M225.8,584.6c-.4-1.3-.4-2.4,1.2-2.8A3.4,3.4,0,0,1,225.8,584.6Z"></path><path d="M533.6,584.8c-1.5-.2-1.8-1.2-1.6-2.6A3.2,3.2,0,0,1,533.6,584.8Z"></path><path d="M535.7,587.8c-1.5-.2-1.9-1.2-1.7-2.5A3.2,3.2,0,0,1,535.7,587.8Z"></path><path d="M399.1,369.7c-.4,1.2-1,1.7-2,.5A1.9,1.9,0,0,1,399.1,369.7Z"></path><path d="M501.8,320.3c-1,1.2-1.6.6-1.9-.5A1.7,1.7,0,0,1,501.8,320.3Z"></path><path d="M247.8,539.6c-.4-1.3-.3-2.4,1.3-2.8A3.9,3.9,0,0,1,247.8,539.6Z"></path><path d="M221.3,600.7c-1.2-1-.7-1.6.5-2A1.7,1.7,0,0,1,221.3,600.7Z"></path><path d="M211.6,599.8c1.2,1,.7,1.6-.6,2A1.7,1.7,0,0,1,211.6,599.8Z"></path><path d="M484.9,318.3c-.9,1.1-1.5.8-2-.3Z"></path><path d="M220.3,605.7c-1.2-.9-.8-1.5.4-2A1.8,1.8,0,0,1,220.3,605.7Z"></path><path d="M219.4,610.7c-1.2-.9-.9-1.5.3-2A1.8,1.8,0,0,1,219.4,610.7Z"></path><path d="M218.3,615.7c-1.2-.9-.8-1.5.4-2A1.8,1.8,0,0,1,218.3,615.7Z"></path><path d="M187.5,532.4c.4-1.5,1.5-1.6,2.8-1.3A3.4,3.4,0,0,1,187.5,532.4Z"></path><path d="M245.1,526.1c.3,1.3.2,2.4-1.4,2.8A3.7,3.7,0,0,1,245.1,526.1Z"></path><path d="M395.1,370.7c-.4,1.2-.9,1.7-2,.5A1.7,1.7,0,0,1,395.1,370.7Z"></path><path d="M391.1,371.7c-.4,1.2-1,1.7-1.9.5Z"></path><path d="M477.3,408c-1.3-.4-1.7-1-.4-2A1.7,1.7,0,0,1,477.3,408Z"></path><path d="M203.6,636.7c1.2.9.8,1.5-.3,2Z"></path><path d="M202.6,641.7c1.1.9.9,1.5-.3,2A1.8,1.8,0,0,1,202.6,641.7Z"></path><path d="M213.4,646.7c-1.2-.9-.9-1.5.2-2S213.5,646,213.4,646.7Z"></path><path d="M201.6,647.7c1.2.9.8,1.5-.3,2A1.7,1.7,0,0,1,201.6,647.7Z"></path><path d="M212.3,652.6c-1.2-.9-.7-1.5.5-1.9A1.7,1.7,0,0,1,212.3,652.6Z"></path><path d="M406.1,520.9c-1,1.2-1.6.9-2-.4A1.9,1.9,0,0,1,406.1,520.9Z"></path><path d="M211.4,657.6c-1.3-.9-.8-1.5.4-1.9A1.7,1.7,0,0,1,211.4,657.6Z"></path><path d="M400.1,519.9c-.8,1.2-1.5,1-2-.2A1.7,1.7,0,0,1,400.1,519.9Z"></path><path d="M467.4,443.8c-.4-1.3-.4-2.4,1.1-2.8A3,3,0,0,1,467.4,443.8Z"></path><path d="M463.5,454.8c-.5-1.3-.5-2.4,1-2.8A3.7,3.7,0,0,1,463.5,454.8Z"></path><path d="M209.4,668.6c-1.2-.8-.9-1.5.3-2A1.8,1.8,0,0,1,209.4,668.6Z"></path><path d="M350.8,463.1a1.8,1.8,0,0,1,2.4,1.7A3.1,3.1,0,0,1,350.8,463.1Z"></path><path d="M207.3,676.6c-1.2-1.1-.6-1.6.6-2A1.7,1.7,0,0,1,207.3,676.6Z"></path><path d="M196.6,679.7c1.1.8.9,1.4-.3,1.9Z"></path><path d="M454.8,444c1.8-7.6,3.7-15.1,5.3-22.8,2.3-11.4-4.1-24.5-15.1-28.4-22.7-8.2-45.8-10-69.1-2l-4.8,1.3c7-2.9,13.9-5.9,21.4-7.2,2.9-.5,5.8-2.6,8.4-2.2,15.6,2.5,31.9,2,46.5,9.3,7.1,3.6,10.9,10,13.3,17.1s3.6,11.8-.1,18.3S458.1,438.9,454.8,444Z"></path><path d="M401.1,471.1l22-.7c-4.9,3.7-10.6,2.3-16,2.4C405.1,472.9,402.3,474.3,401.1,471.1Z"></path><path d="M391.1,469.5l7,1.4C395.3,472.8,393.1,471.6,391.1,469.5Z"></path><path d="M460.5,320.6c-.2-.4-.6-.9-.5-1s1-.4,1.5-.1Z"></path></g></g></g></svg>